<?xml version="1.0" encoding="UTF-8" standalone="no"?>
<svg
   viewBox="0 0 30 30"
   width="30px"
   height="30px"
   version="1.1"
   id="svg1"
   sodipodi:docname="share.svg"
   inkscape:version="1.3.2 (091e20e, 2023-11-25, custom)"
   xmlns:inkscape="http://www.inkscape.org/namespaces/inkscape"
   xmlns:sodipodi="http://sodipodi.sourceforge.net/DTD/sodipodi-0.dtd"
   xmlns="http://www.w3.org/2000/svg"
   xmlns:svg="http://www.w3.org/2000/svg">
  <defs
     id="defs1" />
  <sodipodi:namedview
     id="namedview1"
     pagecolor="#ffffff"
     bordercolor="#000000"
     borderopacity="0.25"
     inkscape:showpageshadow="2"
     inkscape:pageopacity="0.0"
     inkscape:pagecheckerboard="0"
     inkscape:deskcolor="#d1d1d1"
     inkscape:zoom="44.633333"
     inkscape:cx="15"
     inkscape:cy="15"
     inkscape:window-width="1920"
     inkscape:window-height="1001"
     inkscape:window-x="-9"
     inkscape:window-y="-9"
     inkscape:window-maximized="1"
     inkscape:current-layer="svg1" />
  <path
     d="M 23 3 A 4 4 0 0 0 19 7 A 4 4 0 0 0 19.09375 7.8359375 L 10.011719 12.376953 A 4 4 0 0 0 7 11 A 4 4 0 0 0 3 15 A 4 4 0 0 0 7 19 A 4 4 0 0 0 10.013672 17.625 L 19.089844 22.164062 A 4 4 0 0 0 19 23 A 4 4 0 0 0 23 27 A 4 4 0 0 0 27 23 A 4 4 0 0 0 23 19 A 4 4 0 0 0 19.986328 20.375 L 10.910156 15.835938 A 4 4 0 0 0 11 15 A 4 4 0 0 0 10.90625 14.166016 L 19.988281 9.625 A 4 4 0 0 0 23 11 A 4 4 0 0 0 27 7 A 4 4 0 0 0 23 3 z"
     id="path1"
     style="fill:#f0f0f0;fill-opacity:1" />
</svg>
